<mxfile host="Electron" agent="Mozilla/5.0 (X11; Linux x86_64) AppleWebKit/537.36 (KHTML, like Gecko) draw.io/24.7.17 Chrome/128.0.6613.186 Electron/32.2.6 Safari/537.36" version="24.7.17">
  <diagram name="Page-1" id="GqXJzGa9n4dY13YU4teh">
    <mxGraphModel dx="754" dy="811" grid="1" gridSize="10" guides="1" tooltips="1" connect="1" arrows="1" fold="1" page="1" pageScale="1" pageWidth="850" pageHeight="1100" math="0" shadow="0">
      <root>
        <mxCell id="0" />
        <mxCell id="1" parent="0" />
        <mxCell id="0kveMXFkRJbuSdN5jgDS-3" value="" style="edgeStyle=orthogonalEdgeStyle;rounded=0;orthogonalLoop=1;jettySize=auto;html=1;" edge="1" parent="1" source="0kveMXFkRJbuSdN5jgDS-1" target="0kveMXFkRJbuSdN5jgDS-2">
          <mxGeometry relative="1" as="geometry" />
        </mxCell>
        <mxCell id="0kveMXFkRJbuSdN5jgDS-1" value="start" style="ellipse;whiteSpace=wrap;html=1;" vertex="1" parent="1">
          <mxGeometry x="330" y="380" width="120" height="80" as="geometry" />
        </mxCell>
        <mxCell id="0kveMXFkRJbuSdN5jgDS-6" value="" style="edgeStyle=orthogonalEdgeStyle;rounded=0;orthogonalLoop=1;jettySize=auto;html=1;" edge="1" parent="1" source="0kveMXFkRJbuSdN5jgDS-2" target="0kveMXFkRJbuSdN5jgDS-5">
          <mxGeometry relative="1" as="geometry" />
        </mxCell>
        <mxCell id="0kveMXFkRJbuSdN5jgDS-2" value="open inputFile&lt;div&gt;oprn outputFile&lt;/div&gt;" style="rounded=1;whiteSpace=wrap;html=1;" vertex="1" parent="1">
          <mxGeometry x="330" y="490" width="120" height="60" as="geometry" />
        </mxCell>
        <mxCell id="0kveMXFkRJbuSdN5jgDS-8" value="" style="edgeStyle=orthogonalEdgeStyle;rounded=0;orthogonalLoop=1;jettySize=auto;html=1;" edge="1" parent="1" source="0kveMXFkRJbuSdN5jgDS-5" target="0kveMXFkRJbuSdN5jgDS-7">
          <mxGeometry relative="1" as="geometry" />
        </mxCell>
        <mxCell id="0kveMXFkRJbuSdN5jgDS-13" value="true" style="edgeLabel;html=1;align=center;verticalAlign=middle;resizable=0;points=[];" vertex="1" connectable="0" parent="0kveMXFkRJbuSdN5jgDS-8">
          <mxGeometry x="-0.64" y="-3" relative="1" as="geometry">
            <mxPoint as="offset" />
          </mxGeometry>
        </mxCell>
        <mxCell id="0kveMXFkRJbuSdN5jgDS-14" style="edgeStyle=orthogonalEdgeStyle;rounded=0;orthogonalLoop=1;jettySize=auto;html=1;exitX=1;exitY=0.5;exitDx=0;exitDy=0;entryX=1;entryY=0.5;entryDx=0;entryDy=0;" edge="1" parent="1" source="0kveMXFkRJbuSdN5jgDS-5" target="0kveMXFkRJbuSdN5jgDS-11">
          <mxGeometry relative="1" as="geometry" />
        </mxCell>
        <mxCell id="0kveMXFkRJbuSdN5jgDS-5" value="inputFile not open or outputFile not open" style="rhombus;whiteSpace=wrap;html=1;" vertex="1" parent="1">
          <mxGeometry x="300" y="580" width="180" height="80" as="geometry" />
        </mxCell>
        <mxCell id="0kveMXFkRJbuSdN5jgDS-12" style="edgeStyle=orthogonalEdgeStyle;rounded=0;orthogonalLoop=1;jettySize=auto;html=1;entryX=0.5;entryY=0;entryDx=0;entryDy=0;" edge="1" parent="1" source="0kveMXFkRJbuSdN5jgDS-7" target="0kveMXFkRJbuSdN5jgDS-9">
          <mxGeometry relative="1" as="geometry" />
        </mxCell>
        <mxCell id="0kveMXFkRJbuSdN5jgDS-7" value="print &quot;error opening file&quot;" style="shape=parallelogram;perimeter=parallelogramPerimeter;whiteSpace=wrap;html=1;fixedSize=1;" vertex="1" parent="1">
          <mxGeometry x="330" y="690" width="120" height="60" as="geometry" />
        </mxCell>
        <mxCell id="0kveMXFkRJbuSdN5jgDS-9" value="end" style="ellipse;whiteSpace=wrap;html=1;" vertex="1" parent="1">
          <mxGeometry x="10" y="1000" width="120" height="80" as="geometry" />
        </mxCell>
        <mxCell id="0kveMXFkRJbuSdN5jgDS-16" value="" style="edgeStyle=orthogonalEdgeStyle;rounded=0;orthogonalLoop=1;jettySize=auto;html=1;" edge="1" parent="1" source="0kveMXFkRJbuSdN5jgDS-11" target="0kveMXFkRJbuSdN5jgDS-15">
          <mxGeometry relative="1" as="geometry" />
        </mxCell>
        <mxCell id="0kveMXFkRJbuSdN5jgDS-11" value="string line" style="rounded=1;whiteSpace=wrap;html=1;" vertex="1" parent="1">
          <mxGeometry x="330" y="800" width="120" height="60" as="geometry" />
        </mxCell>
        <mxCell id="0kveMXFkRJbuSdN5jgDS-18" value="" style="edgeStyle=orthogonalEdgeStyle;rounded=0;orthogonalLoop=1;jettySize=auto;html=1;" edge="1" parent="1" source="0kveMXFkRJbuSdN5jgDS-15" target="0kveMXFkRJbuSdN5jgDS-17">
          <mxGeometry relative="1" as="geometry" />
        </mxCell>
        <mxCell id="0kveMXFkRJbuSdN5jgDS-19" value="true" style="edgeLabel;html=1;align=center;verticalAlign=middle;resizable=0;points=[];" vertex="1" connectable="0" parent="0kveMXFkRJbuSdN5jgDS-18">
          <mxGeometry x="0.32" y="-2" relative="1" as="geometry">
            <mxPoint as="offset" />
          </mxGeometry>
        </mxCell>
        <mxCell id="0kveMXFkRJbuSdN5jgDS-93" value="" style="edgeStyle=orthogonalEdgeStyle;rounded=0;orthogonalLoop=1;jettySize=auto;html=1;" edge="1" parent="1" source="0kveMXFkRJbuSdN5jgDS-15" target="0kveMXFkRJbuSdN5jgDS-92">
          <mxGeometry relative="1" as="geometry" />
        </mxCell>
        <mxCell id="0kveMXFkRJbuSdN5jgDS-95" value="false" style="edgeLabel;html=1;align=center;verticalAlign=middle;resizable=0;points=[];" vertex="1" connectable="0" parent="0kveMXFkRJbuSdN5jgDS-93">
          <mxGeometry x="-0.25" y="2" relative="1" as="geometry">
            <mxPoint as="offset" />
          </mxGeometry>
        </mxCell>
        <mxCell id="0kveMXFkRJbuSdN5jgDS-15" value="can get line from inputFile" style="rhombus;whiteSpace=wrap;html=1;" vertex="1" parent="1">
          <mxGeometry x="300" y="890" width="180" height="80" as="geometry" />
        </mxCell>
        <mxCell id="0kveMXFkRJbuSdN5jgDS-22" value="" style="edgeStyle=orthogonalEdgeStyle;rounded=0;orthogonalLoop=1;jettySize=auto;html=1;" edge="1" parent="1" source="0kveMXFkRJbuSdN5jgDS-17" target="0kveMXFkRJbuSdN5jgDS-21">
          <mxGeometry relative="1" as="geometry" />
        </mxCell>
        <mxCell id="0kveMXFkRJbuSdN5jgDS-23" value="true" style="edgeLabel;html=1;align=center;verticalAlign=middle;resizable=0;points=[];" vertex="1" connectable="0" parent="0kveMXFkRJbuSdN5jgDS-22">
          <mxGeometry x="0.24" y="-3" relative="1" as="geometry">
            <mxPoint as="offset" />
          </mxGeometry>
        </mxCell>
        <mxCell id="0kveMXFkRJbuSdN5jgDS-46" style="edgeStyle=orthogonalEdgeStyle;rounded=0;orthogonalLoop=1;jettySize=auto;html=1;entryX=0;entryY=0.5;entryDx=0;entryDy=0;" edge="1" parent="1" source="0kveMXFkRJbuSdN5jgDS-17" target="0kveMXFkRJbuSdN5jgDS-45">
          <mxGeometry relative="1" as="geometry">
            <mxPoint x="230" y="1230" as="targetPoint" />
            <Array as="points">
              <mxPoint x="260" y="1040" />
              <mxPoint x="260" y="1250" />
            </Array>
          </mxGeometry>
        </mxCell>
        <mxCell id="0kveMXFkRJbuSdN5jgDS-17" value="twoIdentWords(line)" style="rhombus;whiteSpace=wrap;html=1;" vertex="1" parent="1">
          <mxGeometry x="300" y="1000" width="180" height="80" as="geometry" />
        </mxCell>
        <mxCell id="0kveMXFkRJbuSdN5jgDS-48" style="edgeStyle=orthogonalEdgeStyle;rounded=0;orthogonalLoop=1;jettySize=auto;html=1;entryX=0.5;entryY=0;entryDx=0;entryDy=0;" edge="1" parent="1" source="0kveMXFkRJbuSdN5jgDS-21" target="0kveMXFkRJbuSdN5jgDS-45">
          <mxGeometry relative="1" as="geometry" />
        </mxCell>
        <mxCell id="0kveMXFkRJbuSdN5jgDS-21" value="write line in outputFile" style="shape=parallelogram;perimeter=parallelogramPerimeter;whiteSpace=wrap;html=1;fixedSize=1;" vertex="1" parent="1">
          <mxGeometry x="330" y="1110" width="120" height="60" as="geometry" />
        </mxCell>
        <mxCell id="0kveMXFkRJbuSdN5jgDS-27" value="" style="edgeStyle=orthogonalEdgeStyle;rounded=0;orthogonalLoop=1;jettySize=auto;html=1;" edge="1" parent="1" source="0kveMXFkRJbuSdN5jgDS-24" target="0kveMXFkRJbuSdN5jgDS-25">
          <mxGeometry relative="1" as="geometry" />
        </mxCell>
        <mxCell id="0kveMXFkRJbuSdN5jgDS-24" value="bool twoIdentWords(line)" style="ellipse;whiteSpace=wrap;html=1;" vertex="1" parent="1">
          <mxGeometry x="770" y="380" width="180" height="80" as="geometry" />
        </mxCell>
        <mxCell id="0kveMXFkRJbuSdN5jgDS-28" value="" style="edgeStyle=orthogonalEdgeStyle;rounded=0;orthogonalLoop=1;jettySize=auto;html=1;" edge="1" parent="1" source="0kveMXFkRJbuSdN5jgDS-25" target="0kveMXFkRJbuSdN5jgDS-26">
          <mxGeometry relative="1" as="geometry" />
        </mxCell>
        <mxCell id="0kveMXFkRJbuSdN5jgDS-25" value="unordered map wordCount" style="rounded=1;whiteSpace=wrap;html=1;" vertex="1" parent="1">
          <mxGeometry x="800" y="490" width="120" height="60" as="geometry" />
        </mxCell>
        <mxCell id="0kveMXFkRJbuSdN5jgDS-30" value="" style="edgeStyle=orthogonalEdgeStyle;rounded=0;orthogonalLoop=1;jettySize=auto;html=1;" edge="1" parent="1" source="0kveMXFkRJbuSdN5jgDS-26" target="0kveMXFkRJbuSdN5jgDS-29">
          <mxGeometry relative="1" as="geometry" />
        </mxCell>
        <mxCell id="0kveMXFkRJbuSdN5jgDS-26" value="stringstream iss(line)" style="rounded=1;whiteSpace=wrap;html=1;" vertex="1" parent="1">
          <mxGeometry x="800" y="580" width="120" height="60" as="geometry" />
        </mxCell>
        <mxCell id="0kveMXFkRJbuSdN5jgDS-32" value="" style="edgeStyle=orthogonalEdgeStyle;rounded=0;orthogonalLoop=1;jettySize=auto;html=1;" edge="1" parent="1" source="0kveMXFkRJbuSdN5jgDS-29" target="0kveMXFkRJbuSdN5jgDS-31">
          <mxGeometry relative="1" as="geometry" />
        </mxCell>
        <mxCell id="0kveMXFkRJbuSdN5jgDS-29" value="string word" style="rounded=1;whiteSpace=wrap;html=1;" vertex="1" parent="1">
          <mxGeometry x="800" y="670" width="120" height="60" as="geometry" />
        </mxCell>
        <mxCell id="0kveMXFkRJbuSdN5jgDS-36" value="" style="edgeStyle=orthogonalEdgeStyle;rounded=0;orthogonalLoop=1;jettySize=auto;html=1;" edge="1" parent="1" source="0kveMXFkRJbuSdN5jgDS-31" target="0kveMXFkRJbuSdN5jgDS-33">
          <mxGeometry relative="1" as="geometry" />
        </mxCell>
        <mxCell id="0kveMXFkRJbuSdN5jgDS-43" value="true" style="edgeLabel;html=1;align=center;verticalAlign=middle;resizable=0;points=[];" vertex="1" connectable="0" parent="0kveMXFkRJbuSdN5jgDS-36">
          <mxGeometry x="-0.62" y="-1" relative="1" as="geometry">
            <mxPoint as="offset" />
          </mxGeometry>
        </mxCell>
        <mxCell id="0kveMXFkRJbuSdN5jgDS-44" style="edgeStyle=orthogonalEdgeStyle;rounded=0;orthogonalLoop=1;jettySize=auto;html=1;entryX=0.5;entryY=0;entryDx=0;entryDy=0;" edge="1" parent="1" source="0kveMXFkRJbuSdN5jgDS-31" target="0kveMXFkRJbuSdN5jgDS-40">
          <mxGeometry relative="1" as="geometry" />
        </mxCell>
        <mxCell id="0kveMXFkRJbuSdN5jgDS-68" value="false" style="edgeLabel;html=1;align=center;verticalAlign=middle;resizable=0;points=[];" vertex="1" connectable="0" parent="0kveMXFkRJbuSdN5jgDS-44">
          <mxGeometry x="-0.7667" y="-2" relative="1" as="geometry">
            <mxPoint y="1" as="offset" />
          </mxGeometry>
        </mxCell>
        <mxCell id="0kveMXFkRJbuSdN5jgDS-31" value="can get next word from iss" style="rhombus;whiteSpace=wrap;html=1;" vertex="1" parent="1">
          <mxGeometry x="770" y="760" width="180" height="80" as="geometry" />
        </mxCell>
        <mxCell id="0kveMXFkRJbuSdN5jgDS-35" value="" style="edgeStyle=orthogonalEdgeStyle;rounded=0;orthogonalLoop=1;jettySize=auto;html=1;" edge="1" parent="1" source="0kveMXFkRJbuSdN5jgDS-33" target="0kveMXFkRJbuSdN5jgDS-34">
          <mxGeometry relative="1" as="geometry" />
        </mxCell>
        <mxCell id="0kveMXFkRJbuSdN5jgDS-33" value="wordCount[word]++;" style="rounded=0;whiteSpace=wrap;html=1;" vertex="1" parent="1">
          <mxGeometry x="800" y="870" width="120" height="60" as="geometry" />
        </mxCell>
        <mxCell id="0kveMXFkRJbuSdN5jgDS-38" value="" style="edgeStyle=orthogonalEdgeStyle;rounded=0;orthogonalLoop=1;jettySize=auto;html=1;" edge="1" parent="1" source="0kveMXFkRJbuSdN5jgDS-34" target="0kveMXFkRJbuSdN5jgDS-37">
          <mxGeometry relative="1" as="geometry" />
        </mxCell>
        <mxCell id="0kveMXFkRJbuSdN5jgDS-39" value="true" style="edgeLabel;html=1;align=center;verticalAlign=middle;resizable=0;points=[];" vertex="1" connectable="0" parent="0kveMXFkRJbuSdN5jgDS-38">
          <mxGeometry x="0.46" y="1" relative="1" as="geometry">
            <mxPoint as="offset" />
          </mxGeometry>
        </mxCell>
        <mxCell id="0kveMXFkRJbuSdN5jgDS-67" style="edgeStyle=orthogonalEdgeStyle;rounded=0;orthogonalLoop=1;jettySize=auto;html=1;entryX=0;entryY=0.5;entryDx=0;entryDy=0;" edge="1" parent="1" source="0kveMXFkRJbuSdN5jgDS-34" target="0kveMXFkRJbuSdN5jgDS-31">
          <mxGeometry relative="1" as="geometry">
            <Array as="points">
              <mxPoint x="720" y="1000" />
              <mxPoint x="720" y="800" />
            </Array>
          </mxGeometry>
        </mxCell>
        <mxCell id="0kveMXFkRJbuSdN5jgDS-34" value="wordCount[word] &amp;gt;=2" style="rhombus;whiteSpace=wrap;html=1;" vertex="1" parent="1">
          <mxGeometry x="770" y="960" width="180" height="80" as="geometry" />
        </mxCell>
        <mxCell id="0kveMXFkRJbuSdN5jgDS-37" value="return 1" style="ellipse;whiteSpace=wrap;html=1;" vertex="1" parent="1">
          <mxGeometry x="800" y="1070" width="120" height="80" as="geometry" />
        </mxCell>
        <mxCell id="0kveMXFkRJbuSdN5jgDS-40" value="return 0" style="ellipse;whiteSpace=wrap;html=1;" vertex="1" parent="1">
          <mxGeometry x="980" y="1070" width="120" height="80" as="geometry" />
        </mxCell>
        <mxCell id="0kveMXFkRJbuSdN5jgDS-87" value="" style="edgeStyle=orthogonalEdgeStyle;rounded=0;orthogonalLoop=1;jettySize=auto;html=1;" edge="1" parent="1" source="0kveMXFkRJbuSdN5jgDS-45" target="0kveMXFkRJbuSdN5jgDS-86">
          <mxGeometry relative="1" as="geometry" />
        </mxCell>
        <mxCell id="0kveMXFkRJbuSdN5jgDS-45" value="int wordIdx = mostDigitWord(line)" style="rounded=1;whiteSpace=wrap;html=1;" vertex="1" parent="1">
          <mxGeometry x="290" y="1220" width="200" height="60" as="geometry" />
        </mxCell>
        <mxCell id="0kveMXFkRJbuSdN5jgDS-52" value="" style="edgeStyle=orthogonalEdgeStyle;rounded=0;orthogonalLoop=1;jettySize=auto;html=1;" edge="1" parent="1" source="0kveMXFkRJbuSdN5jgDS-49" target="0kveMXFkRJbuSdN5jgDS-50">
          <mxGeometry relative="1" as="geometry" />
        </mxCell>
        <mxCell id="0kveMXFkRJbuSdN5jgDS-49" value="int mostDigitWord(line)" style="ellipse;whiteSpace=wrap;html=1;" vertex="1" parent="1">
          <mxGeometry x="1220" y="380" width="160" height="80" as="geometry" />
        </mxCell>
        <mxCell id="0kveMXFkRJbuSdN5jgDS-54" value="" style="edgeStyle=orthogonalEdgeStyle;rounded=0;orthogonalLoop=1;jettySize=auto;html=1;" edge="1" parent="1" source="0kveMXFkRJbuSdN5jgDS-50" target="0kveMXFkRJbuSdN5jgDS-53">
          <mxGeometry relative="1" as="geometry" />
        </mxCell>
        <mxCell id="0kveMXFkRJbuSdN5jgDS-50" value="stringstream iss(line)" style="rounded=1;whiteSpace=wrap;html=1;" vertex="1" parent="1">
          <mxGeometry x="1240" y="490" width="120" height="60" as="geometry" />
        </mxCell>
        <mxCell id="0kveMXFkRJbuSdN5jgDS-56" value="" style="edgeStyle=orthogonalEdgeStyle;rounded=0;orthogonalLoop=1;jettySize=auto;html=1;" edge="1" parent="1" source="0kveMXFkRJbuSdN5jgDS-53" target="0kveMXFkRJbuSdN5jgDS-55">
          <mxGeometry relative="1" as="geometry" />
        </mxCell>
        <mxCell id="0kveMXFkRJbuSdN5jgDS-53" value="string word" style="rounded=1;whiteSpace=wrap;html=1;" vertex="1" parent="1">
          <mxGeometry x="1240" y="580" width="120" height="60" as="geometry" />
        </mxCell>
        <mxCell id="0kveMXFkRJbuSdN5jgDS-58" value="" style="edgeStyle=orthogonalEdgeStyle;rounded=0;orthogonalLoop=1;jettySize=auto;html=1;" edge="1" parent="1" source="0kveMXFkRJbuSdN5jgDS-55" target="0kveMXFkRJbuSdN5jgDS-57">
          <mxGeometry relative="1" as="geometry" />
        </mxCell>
        <mxCell id="0kveMXFkRJbuSdN5jgDS-55" value="int MaxD = 0" style="rounded=1;whiteSpace=wrap;html=1;" vertex="1" parent="1">
          <mxGeometry x="1240" y="670" width="120" height="60" as="geometry" />
        </mxCell>
        <mxCell id="0kveMXFkRJbuSdN5jgDS-60" value="" style="edgeStyle=orthogonalEdgeStyle;rounded=0;orthogonalLoop=1;jettySize=auto;html=1;" edge="1" parent="1" source="0kveMXFkRJbuSdN5jgDS-57" target="0kveMXFkRJbuSdN5jgDS-59">
          <mxGeometry relative="1" as="geometry" />
        </mxCell>
        <mxCell id="0kveMXFkRJbuSdN5jgDS-57" value="int maxDIdx = -1" style="rounded=1;whiteSpace=wrap;html=1;" vertex="1" parent="1">
          <mxGeometry x="1240" y="760" width="120" height="60" as="geometry" />
        </mxCell>
        <mxCell id="0kveMXFkRJbuSdN5jgDS-63" value="" style="edgeStyle=orthogonalEdgeStyle;rounded=0;orthogonalLoop=1;jettySize=auto;html=1;" edge="1" parent="1" source="0kveMXFkRJbuSdN5jgDS-59" target="0kveMXFkRJbuSdN5jgDS-61">
          <mxGeometry relative="1" as="geometry" />
        </mxCell>
        <mxCell id="0kveMXFkRJbuSdN5jgDS-59" value="idx = 0" style="whiteSpace=wrap;html=1;rounded=1;" vertex="1" parent="1">
          <mxGeometry x="1240" y="850" width="120" height="60" as="geometry" />
        </mxCell>
        <mxCell id="0kveMXFkRJbuSdN5jgDS-65" value="" style="edgeStyle=orthogonalEdgeStyle;rounded=0;orthogonalLoop=1;jettySize=auto;html=1;" edge="1" parent="1" source="0kveMXFkRJbuSdN5jgDS-61" target="0kveMXFkRJbuSdN5jgDS-64">
          <mxGeometry relative="1" as="geometry" />
        </mxCell>
        <mxCell id="0kveMXFkRJbuSdN5jgDS-80" value="true" style="edgeLabel;html=1;align=center;verticalAlign=middle;resizable=0;points=[];" vertex="1" connectable="0" parent="0kveMXFkRJbuSdN5jgDS-65">
          <mxGeometry x="0.34" y="-3" relative="1" as="geometry">
            <mxPoint as="offset" />
          </mxGeometry>
        </mxCell>
        <mxCell id="0kveMXFkRJbuSdN5jgDS-82" value="" style="edgeStyle=orthogonalEdgeStyle;rounded=0;orthogonalLoop=1;jettySize=auto;html=1;" edge="1" parent="1" source="0kveMXFkRJbuSdN5jgDS-61" target="0kveMXFkRJbuSdN5jgDS-81">
          <mxGeometry relative="1" as="geometry" />
        </mxCell>
        <mxCell id="0kveMXFkRJbuSdN5jgDS-84" value="false" style="edgeLabel;html=1;align=center;verticalAlign=middle;resizable=0;points=[];" vertex="1" connectable="0" parent="0kveMXFkRJbuSdN5jgDS-82">
          <mxGeometry x="-0.16" relative="1" as="geometry">
            <mxPoint y="1" as="offset" />
          </mxGeometry>
        </mxCell>
        <mxCell id="0kveMXFkRJbuSdN5jgDS-61" value="can get next word from iss" style="rhombus;whiteSpace=wrap;html=1;" vertex="1" parent="1">
          <mxGeometry x="1210" y="940" width="180" height="80" as="geometry" />
        </mxCell>
        <mxCell id="0kveMXFkRJbuSdN5jgDS-70" value="" style="edgeStyle=orthogonalEdgeStyle;rounded=0;orthogonalLoop=1;jettySize=auto;html=1;" edge="1" parent="1" source="0kveMXFkRJbuSdN5jgDS-64" target="0kveMXFkRJbuSdN5jgDS-66">
          <mxGeometry relative="1" as="geometry" />
        </mxCell>
        <mxCell id="0kveMXFkRJbuSdN5jgDS-64" value="int count = number of digits in word" style="rounded=1;whiteSpace=wrap;html=1;" vertex="1" parent="1">
          <mxGeometry x="1240" y="1050" width="120" height="60" as="geometry" />
        </mxCell>
        <mxCell id="0kveMXFkRJbuSdN5jgDS-73" value="" style="edgeStyle=orthogonalEdgeStyle;rounded=0;orthogonalLoop=1;jettySize=auto;html=1;" edge="1" parent="1" source="0kveMXFkRJbuSdN5jgDS-66" target="0kveMXFkRJbuSdN5jgDS-72">
          <mxGeometry relative="1" as="geometry" />
        </mxCell>
        <mxCell id="0kveMXFkRJbuSdN5jgDS-77" value="true" style="edgeLabel;html=1;align=center;verticalAlign=middle;resizable=0;points=[];" vertex="1" connectable="0" parent="0kveMXFkRJbuSdN5jgDS-73">
          <mxGeometry x="0.34" y="4" relative="1" as="geometry">
            <mxPoint as="offset" />
          </mxGeometry>
        </mxCell>
        <mxCell id="0kveMXFkRJbuSdN5jgDS-76" style="edgeStyle=orthogonalEdgeStyle;rounded=0;orthogonalLoop=1;jettySize=auto;html=1;entryX=1;entryY=0.5;entryDx=0;entryDy=0;" edge="1" parent="1" source="0kveMXFkRJbuSdN5jgDS-66" target="0kveMXFkRJbuSdN5jgDS-74">
          <mxGeometry relative="1" as="geometry">
            <Array as="points">
              <mxPoint x="1430" y="1180" />
              <mxPoint x="1430" y="1370" />
            </Array>
          </mxGeometry>
        </mxCell>
        <mxCell id="0kveMXFkRJbuSdN5jgDS-78" value="false" style="edgeLabel;html=1;align=center;verticalAlign=middle;resizable=0;points=[];" vertex="1" connectable="0" parent="0kveMXFkRJbuSdN5jgDS-76">
          <mxGeometry x="-0.9385" y="2" relative="1" as="geometry">
            <mxPoint y="1" as="offset" />
          </mxGeometry>
        </mxCell>
        <mxCell id="0kveMXFkRJbuSdN5jgDS-66" value="count &amp;gt; maxD" style="rhombus;whiteSpace=wrap;html=1;" vertex="1" parent="1">
          <mxGeometry x="1210" y="1140" width="180" height="80" as="geometry" />
        </mxCell>
        <mxCell id="0kveMXFkRJbuSdN5jgDS-75" value="" style="edgeStyle=orthogonalEdgeStyle;rounded=0;orthogonalLoop=1;jettySize=auto;html=1;" edge="1" parent="1" source="0kveMXFkRJbuSdN5jgDS-72" target="0kveMXFkRJbuSdN5jgDS-74">
          <mxGeometry relative="1" as="geometry" />
        </mxCell>
        <mxCell id="0kveMXFkRJbuSdN5jgDS-72" value="maxD = count&lt;div&gt;maxDIdx = idx&lt;/div&gt;" style="rounded=0;whiteSpace=wrap;html=1;" vertex="1" parent="1">
          <mxGeometry x="1240" y="1250" width="120" height="60" as="geometry" />
        </mxCell>
        <mxCell id="0kveMXFkRJbuSdN5jgDS-79" style="edgeStyle=orthogonalEdgeStyle;rounded=0;orthogonalLoop=1;jettySize=auto;html=1;entryX=0;entryY=0.5;entryDx=0;entryDy=0;" edge="1" parent="1" source="0kveMXFkRJbuSdN5jgDS-74" target="0kveMXFkRJbuSdN5jgDS-61">
          <mxGeometry relative="1" as="geometry">
            <Array as="points">
              <mxPoint x="1170" y="1370" />
              <mxPoint x="1170" y="980" />
            </Array>
          </mxGeometry>
        </mxCell>
        <mxCell id="0kveMXFkRJbuSdN5jgDS-74" value="idx++" style="rounded=0;whiteSpace=wrap;html=1;" vertex="1" parent="1">
          <mxGeometry x="1240" y="1340" width="120" height="60" as="geometry" />
        </mxCell>
        <mxCell id="0kveMXFkRJbuSdN5jgDS-81" value="return maxDIdx" style="ellipse;whiteSpace=wrap;html=1;" vertex="1" parent="1">
          <mxGeometry x="1440" y="940" width="120" height="80" as="geometry" />
        </mxCell>
        <mxCell id="0kveMXFkRJbuSdN5jgDS-89" value="" style="edgeStyle=orthogonalEdgeStyle;rounded=0;orthogonalLoop=1;jettySize=auto;html=1;" edge="1" parent="1" source="0kveMXFkRJbuSdN5jgDS-86" target="0kveMXFkRJbuSdN5jgDS-88">
          <mxGeometry relative="1" as="geometry" />
        </mxCell>
        <mxCell id="0kveMXFkRJbuSdN5jgDS-86" value="wordIdx != -1" style="rhombus;whiteSpace=wrap;html=1;" vertex="1" parent="1">
          <mxGeometry x="300" y="1310" width="180" height="80" as="geometry" />
        </mxCell>
        <mxCell id="0kveMXFkRJbuSdN5jgDS-90" style="edgeStyle=orthogonalEdgeStyle;rounded=0;orthogonalLoop=1;jettySize=auto;html=1;exitX=1;exitY=0.5;exitDx=0;exitDy=0;entryX=1;entryY=0.5;entryDx=0;entryDy=0;" edge="1" parent="1" source="0kveMXFkRJbuSdN5jgDS-88" target="0kveMXFkRJbuSdN5jgDS-15">
          <mxGeometry relative="1" as="geometry">
            <Array as="points">
              <mxPoint x="640" y="1450" />
              <mxPoint x="640" y="930" />
            </Array>
          </mxGeometry>
        </mxCell>
        <mxCell id="0kveMXFkRJbuSdN5jgDS-88" value="print &quot;in line: *line* index of word with the most digits is: *wordIdx*" style="shape=parallelogram;perimeter=parallelogramPerimeter;whiteSpace=wrap;html=1;fixedSize=1;" vertex="1" parent="1">
          <mxGeometry x="200" y="1420" width="380" height="60" as="geometry" />
        </mxCell>
        <mxCell id="0kveMXFkRJbuSdN5jgDS-94" style="edgeStyle=orthogonalEdgeStyle;rounded=0;orthogonalLoop=1;jettySize=auto;html=1;entryX=1;entryY=0.5;entryDx=0;entryDy=0;" edge="1" parent="1" source="0kveMXFkRJbuSdN5jgDS-92" target="0kveMXFkRJbuSdN5jgDS-9">
          <mxGeometry relative="1" as="geometry">
            <Array as="points">
              <mxPoint x="200" y="1040" />
            </Array>
          </mxGeometry>
        </mxCell>
        <mxCell id="0kveMXFkRJbuSdN5jgDS-92" value="close inputFile&lt;div&gt;close outputFile&lt;/div&gt;" style="rounded=0;whiteSpace=wrap;html=1;" vertex="1" parent="1">
          <mxGeometry x="140" y="900" width="120" height="60" as="geometry" />
        </mxCell>
      </root>
    </mxGraphModel>
  </diagram>
</mxfile>
